<svg xmlns="http://www.w3.org/2000/svg" xmlns:xlink="http://www.w3.org/1999/xlink" xmlns:lucid="lucid" width="1025.57" height="957.9"><g transform="translate(10.365234375 -720)" lucid:page-tab-id="0_0"><path d="M-500 500h2000v1500H-500z" fill="#fff"/><path d="M100 762.9a6 6 0 0 1 6-6h628a6 6 0 0 1 6 6v908a6 6 0 0 1-6 6H106a6 6 0 0 1-6-6z" stroke="#000" stroke-width="2" fill="#fff"/><path d="M370.85 726a6 6 0 0 1 6-6h165.1a6 6 0 0 1 6 6v24.9a6 6 0 0 1-6 6h-165.1a6 6 0 0 1-6-6z" fill="none"/><use xlink:href="#a" transform="matrix(1,0,0,1,375.85328993055555,725) translate(0 21.58376736111111)"/><use xlink:href="#b" transform="matrix(1,0,0,1,375.85328993055555,725) translate(69.55295138888889 21.58376736111111)"/><path d="M20.25 819.95v-.2A19.75 19.75 0 0 1 40 800a19.75 19.75 0 0 1 19.75 19.75A19.75 19.75 0 0 1 40 839.5a19.75 19.75 0 0 1-19.75-19.75v-.2" stroke="#000" stroke-width="2" fill="#fff"/><path d="M0 806a6 6 0 0 1 6-6h68a6 6 0 0 1 6 6v146a6 6 0 0 1-6 6H6a6 6 0 0 1-6-6z" fill="none"/><path d="M40 839.5v55.3L80 958m-40-63.2L0 958m0-98.75h80" stroke="#000" stroke-width="2" fill="none"/><use xlink:href="#c" transform="matrix(1,0,0,1,-80,958) translate(70.634765625 21.52777777777778)"/><path d="M880.25 819.95v-.2A19.75 19.75 0 0 1 900 800a19.75 19.75 0 0 1 19.75 19.75A19.75 19.75 0 0 1 900 839.5a19.75 19.75 0 0 1-19.75-19.75v-.2" stroke="#000" stroke-width="2" fill="#fff"/><path d="M860 806a6 6 0 0 1 6-6h68a6 6 0 0 1 6 6v146a6 6 0 0 1-6 6h-68a6 6 0 0 1-6-6z" fill="none"/><path d="M900 839.5v55.3l40 63.2m-40-63.2L860 958m0-98.75h80" stroke="#000" stroke-width="2" fill="none"/><use xlink:href="#d" transform="matrix(1,0,0,1,780,958) translate(4.532335069444457 21.52777777777778)"/><use xlink:href="#e" transform="matrix(1,0,0,1,780,958) translate(86.20551215277779 21.52777777777778)"/><path d="M340 1020c0 33.14-35.82 60-80 60s-80-26.86-80-60 35.82-60 80-60 80 26.86 80 60z" stroke="#000" stroke-width="2" fill="#fff"/><use xlink:href="#f" transform="matrix(1,0,0,1,180,960) translate(42.446259765624994 64.966875)"/><use xlink:href="#g" transform="matrix(1,0,0,1,180,960) translate(83.773134765625 64.966875)"/><path d="M340 1180c0 33.14-35.82 60-80 60s-80-26.86-80-60 35.82-60 80-60 80 26.86 80 60z" stroke="#000" stroke-width="2" fill="#fff"/><use xlink:href="#h" transform="matrix(1,0,0,1,180,1120) translate(37.08831542968749 64.966875)"/><use xlink:href="#i" transform="matrix(1,0,0,1,180,1120) translate(71.6963037109375 64.966875)"/><use xlink:href="#j" transform="matrix(1,0,0,1,180,1120) translate(91.7548779296875 64.966875)"/><path d="M340 1340c0 33.14-35.82 60-80 60s-80-26.86-80-60 35.82-60 80-60 80 26.86 80 60z" stroke="#000" stroke-width="2" fill="#fff"/><use xlink:href="#k" transform="matrix(1,0,0,1,180,1280) translate(43.50068359374999 64.966875)"/><path d="M340 860c0 33.14-35.82 60-80 60s-80-26.86-80-60 35.82-60 80-60 80 26.86 80 60z" stroke="#000" stroke-width="2" fill="#fff"/><use xlink:href="#l" transform="matrix(1,0,0,1,180,800) translate(60.853720703125 64.966875)"/><path d="M41.5 890H100a6 6 0 0 0 6-6v-18a6 6 0 0 1 6-6h50.62M41.5 890H38" stroke="#3a414a" fill="none"/><path d="M177.38 860l-14.26 4.63v-9.26z" stroke="#3a414a" fill="#3a414a"/><path d="M87.27 890.5V1014a6 6 0 0 0 6 6h69.35M87.27 890.5v-.5" stroke="#3a414a" fill="none"/><path d="M177.38 1020l-14.26 4.63v-9.27z" stroke="#3a414a" fill="#3a414a"/><path d="M39.5 896.67H6a6 6 0 0 0-6 6V1174a6 6 0 0 0 6 6h156.62M39.5 896.67H43" stroke="#3a414a" fill="none"/><path d="M177.38 1180l-14.26 4.63v-9.27z" stroke="#3a414a" fill="#3a414a"/><path d="M39.5 980H6a6 6 0 0 0-6 6v369.84a6 6 0 0 0 6 6h161.98" stroke="#3a414a" fill="none"/><path d="M43 980.48h-3.5v-.96H43z" stroke="#3a414a" stroke-width=".05" fill="#3a414a"/><path d="M182.75 1361.84l-14.27 4.64v-9.27z" stroke="#3a414a" fill="#3a414a"/><path d="M835 859.6l1 .24.94.4.87.52.78.66.66.77.53.86.4.94.23 1 .08.98v33.52h-.96v-33.48l-.06-.88-.2-.85-.34-.8-.45-.75-.56-.66-.65-.57-.74-.45-.8-.33-.84-.2-.88-.07h-476.6v-.96h476.64zM840.48 900h-.96v-.5h.96z" stroke="#3a414a" stroke-width=".05" fill="#3a414a"/><path d="M356.88 864.63L342.62 860l14.26-4.63z" fill="#3a414a"/><path d="M357.36 865.3l-16.28-5.3 16.28-5.3zm-13.2-5.3l12.25 3.98v-7.96z" stroke="#3a414a" stroke-width=".05" fill="#3a414a"/><path d="M862.93 950.7h-33.5a6 6 0 0 0-6 6v57.3a6 6 0 0 0 6 6h28a6 6 0 0 1 6 6v148a6 6 0 0 1-6 6H357.38M862.9 950.7h3.53" stroke="#3a414a" fill="none"/><path d="M342.62 1180l14.26-4.63v9.27z" stroke="#3a414a" fill="#3a414a"/><path d="M898.5 890.48h-33.48l-.88.06-.85.2-.8.34-.75.45-.66.56-.57.65-.45.74-.33.8-.2.84-.07.88v123.7l-.08 1-.24 1-.4.93-.52.87-.66.78-.77.65-.86.54-.94.37-1 .24-.98.1h-496v-.96H853l.88-.07.85-.2.8-.33.75-.46.66-.56.57-.66.45-.74.33-.8.2-.84.07-.88V895.98l.08-1 .24-.98.4-.94.52-.87.66-.78.77-.66.86-.53.94-.4 1-.23.98-.08h33.52z" stroke="#3a414a" stroke-width=".05" fill="#3a414a"/><path d="M902 890.48h-3.5v-.96h3.5z" stroke="#3a414a" stroke-width=".05" fill="#3a414a"/><path d="M356.53 1030.35l-14.26-4.63 14.26-4.64z" fill="#3a414a"/><path d="M357 1031l-16.27-5.3 16.28-5.27zm-13.2-5.3l12.26 4v-7.97z" stroke="#3a414a" stroke-width=".05" fill="#3a414a"/><path d="M260 921.5v7.04m0 7.04v7.04" stroke="#3a414a" fill="none"/><path d="M260 921h.48v.5h-.96v-.5z" stroke="#3a414a" stroke-width=".05" fill="#3a414a"/><path d="M260 957.38l-4.63-14.26h9.26z" stroke="#3a414a" fill="#3a414a"/><path d="M211 926a6 6 0 0 1 6-6h86a6 6 0 0 1 6 6v24.9a6 6 0 0 1-6 6h-86a6 6 0 0 1-6-6z" fill="none"/><use xlink:href="#m" transform="matrix(1,0,0,1,215.98458333333332,925) translate(0 21.58376736111111)"/><path d="M211 1086a6 6 0 0 1 6-6h86a6 6 0 0 1 6 6v24.9a6 6 0 0 1-6 6h-86a6 6 0 0 1-6-6z" fill="none"/><use xlink:href="#m" transform="matrix(1,0,0,1,215.98458333333332,1085) translate(0 21.58376736111111)"/><path d="M260 1081.5v1.76m0 3.52v3.52m0 3.52v3.52m0 3.52v1.76" stroke="#3a414a" fill="none"/><path d="M260 1081h.48v.5h-.96v-.5z" stroke="#3a414a" stroke-width=".05" fill="#3a414a"/><path d="M260 1117.38l-4.63-14.26h9.26z" stroke="#3a414a" fill="#3a414a"/><path d="M260 1241.5v1.76m0 3.52v3.52m0 3.52v3.52m0 3.52v1.76" stroke="#3a414a" fill="none"/><path d="M260 1241h.48v.5h-.96v-.5z" stroke="#3a414a" stroke-width=".05" fill="#3a414a"/><path d="M260 1277.38l-4.63-14.26h9.26z" stroke="#3a414a" fill="#3a414a"/><path d="M211 1249.1a6 6 0 0 1 6-6h86a6 6 0 0 1 6 6v24.9a6 6 0 0 1-6 6h-86a6 6 0 0 1-6-6z" fill="none"/><use xlink:href="#m" transform="matrix(1,0,0,1,215.98458333333332,1248.1019791666668) translate(0 21.58376736111111)"/><path d="M465.02 1348.72H356.64v-.95h108.38zm394.46-6.45l-.08 1-.24.98-.4.94-.52.86-.66.77-.77.66-.86.52-.94.4-1 .23-.98.07H534.98v-.95h318l.88-.07.85-.2.8-.33.75-.45.66-.57.57-.65.45-.74.33-.8.2-.85.07-.87V900.98h.96z" stroke="#3a414a" stroke-width=".05" fill="#3a414a"/><path d="M859.48 901h-.96v-.52h.96z" stroke="#3a414a" stroke-width=".05" fill="#3a414a"/><path d="M356.14 1352.88l-14.27-4.63 14.27-4.64z" fill="#3a414a"/><path d="M356.6 1353.54l-16.27-5.3 16.28-5.28zm-13.2-5.3l12.26 4v-7.97z" stroke="#3a414a" stroke-width=".05" fill="#3a414a"/><path d="M600 920c0 33.14-35.82 60-80 60s-80-26.86-80-60 35.82-60 80-60 80 26.86 80 60z" stroke="#000" stroke-width="2" fill="#fff"/><use xlink:href="#n" transform="matrix(1,0,0,1,440,860) translate(16.92756835937498 57.466875)"/><use xlink:href="#o" transform="matrix(1,0,0,1,440,860) translate(77.64276367187499 57.466875)"/><use xlink:href="#p" transform="matrix(1,0,0,1,440,860) translate(121.0376171875 57.466875)"/><use xlink:href="#q" transform="matrix(1,0,0,1,440,860) translate(33.54087402343749 77.72162109375)"/><use xlink:href="#r" transform="matrix(1,0,0,1,440,860) translate(88.1665673828125 77.72162109375)"/><path d="M390.05 927.93l.06.88.22.85.33.8.45.74.56.65.66.56.74.47.8.33.85.2.9.07h4.84v.95h-4.9l-.98-.08-1-.24-.93-.38-.87-.54-.77-.65-.67-.78-.53-.87-.4-.93-.23-1-.07-1v-5.06h.95zm24.98 6.5h-9.73v-.96h9.73zm9.73 0h-4.86v-.96h4.86zm-34.7-16.6h-.96v-1.87h.95zm0-23.38h-.96v-1.88h.95zm-5.48-18.38l1 .23.93.4.88.52.77.66.66.78.54.86.4.94.23 1 .08 1v5.06h-.95v-5.04l-.07-.88-.2-.84-.34-.8-.46-.74-.56-.66-.66-.56-.74-.46-.8-.33-.84-.2-.9-.06h-4.98V876h5.03zm-41.07.87h-5V876h5zm15.03 0H348.5V876h10.03zm15.02 0h-10V876h10z" stroke="#3a414a" stroke-width=".05" fill="#3a414a"/><path d="M338.5 876.94h-.67l.34-.95h.34z" fill="#3a414a"/><path stroke="#3a414a" stroke-width=".05" fill="#3a414a"/><path d="M439.53 933.95l-14.27 4.63v-9.27z" fill="#3a414a"/><path d="M441.06 933.95l-16.27 5.28v-10.57zm-15.32 3.98l12.25-3.98-12.26-4z" stroke="#3a414a" stroke-width=".05" fill="#3a414a"/><use xlink:href="#s" transform="matrix(1,0,0,1,359.5708691128532,894.4495440164652) translate(0 17.22222222222222)"/><path d="M859 890.5V915a6 6 0 0 1-6 6H641.5a.5.5 0 0 1-.5-.5.5.5 0 0 0-.5-.5h-23.12M859 890.5v-.5" stroke="#3a414a" fill="none"/><path d="M602.62 920l14.26-4.63v9.26z" stroke="#3a414a" fill="#3a414a"/><path d="M340 1520c0 33.14-35.82 60-80 60s-80-26.86-80-60 35.82-60 80-60 80 26.86 80 60z" stroke="#000" stroke-width="2" fill="#fff"/><use xlink:href="#t" transform="matrix(1,0,0,1,180,1460) translate(30.97020507812499 57.466875)"/><use xlink:href="#u" transform="matrix(1,0,0,1,180,1460) translate(95.9930078125 57.466875)"/><use xlink:href="#v" transform="matrix(1,0,0,1,180,1460) translate(48.090288085937495 77.72162109375)"/><path d="M39.5 896.67H6a6 6 0 0 0-6 6V1514a6 6 0 0 0 6 6h156.62M39.5 896.67H43" stroke="#3a414a" fill="none"/><path d="M177.38 1520l-14.26 4.63v-9.27z" stroke="#3a414a" fill="#3a414a"/><path d="M913.94 929.57l1 .24.92.4.87.53.77.66.66.76.54.87.38.94.24 1 .08.98v578.07l-.08 1-.24.98-.38.94-.54.87-.66.78-.77.66-.87.53-.93.4-1 .23-1 .07H357.4v-.94H912.9l.9-.07.83-.2.8-.34.74-.45.66-.56.56-.65.45-.74.33-.8.2-.84.07-.88v-578l-.07-.88-.2-.84-.33-.8-.46-.74-.57-.66-.66-.56-.74-.45-.8-.33-.84-.2-.9-.08h-33.48v-.95h33.52z" stroke="#3a414a" stroke-width=".05" fill="#3a414a"/><path d="M879.44 930.44h-3.52v-.95h3.52z" stroke="#3a414a" stroke-width=".05" fill="#3a414a"/><path d="M356.88 1524.63l-14.26-4.63 14.26-4.63z" fill="#3a414a"/><path d="M357.36 1525.3l-16.28-5.3 16.28-5.3zm-13.2-5.3l12.25 3.98v-7.96z" stroke="#3a414a" stroke-width=".05" fill="#3a414a"/><path d="M580 1261.55c0 33.14-35.82 60-80 60s-80-26.86-80-60 35.82-60 80-60 80 26.86 80 60z" stroke="#000" stroke-width="2" fill="#fff"/><use xlink:href="#w" transform="matrix(1,0,0,1,420,1201.5509895833334) translate(16.78861328125 64.966875)"/><use xlink:href="#x" transform="matrix(1,0,0,1,420,1201.5509895833334) translate(69.468935546875 64.966875)"/><path d="M402.62 1262.03h-5.12v-.95h5.12zm-10.23 0h-6.2v-.95h6.2zm-72-11.23h-.95v-.92h.95zm0-6.6h-.95v-11.32h.95zm0-17h-.95v-5.66h.95z" stroke="#3a414a" stroke-width=".05" fill="#3a414a"/><path d="M320.4 1221.55h-.95v-.14l.73-.56.22-.2z" fill="#3a414a"/><path stroke="#3a414a" stroke-width=".05" fill="#3a414a"/><path d="M417.38 1261.55l-14.26 4.64v-9.28z" fill="#3a414a"/><path d="M418.92 1261.55l-16.28 5.3v-10.6zm-15.33 3.98l12.25-3.98-12.26-3.98z" stroke="#3a414a" stroke-width=".05" fill="#3a414a"/><g><use xlink:href="#y" transform="matrix(1,0,0,1,312.21693350882356,1250.7957812500001) translate(0 17.22222222222222)"/></g><path d="M680 1400c0 33.14-35.82 60-80 60s-80-26.86-80-60 35.82-60 80-60 80 26.86 80 60z" stroke="#000" stroke-width="2" fill="#fff"/><g><use xlink:href="#n" transform="matrix(1,0,0,1,520,1340) translate(26.470512695312486 57.466875)"/><use xlink:href="#z" transform="matrix(1,0,0,1,520,1340) translate(87.1857080078125 57.466875)"/><use xlink:href="#A" transform="matrix(1,0,0,1,520,1340) translate(117.3062646484375 57.466875)"/><use xlink:href="#B" transform="matrix(1,0,0,1,520,1340) translate(20.421879882812483 77.72162109375)"/><use xlink:href="#C" transform="matrix(1,0,0,1,520,1340) translate(68.06712402343749 77.72162109375)"/></g><path d="M500.48 1397.37l.02.35.08.33.13.3.2.3.2.25.26.2.28.2.3.12.34.08.37.03-.07.94-.45-.03-.47-.12-.45-.18-.4-.25-.37-.33-.32-.37-.24-.4-.2-.46-.1-.47-.04-.47v-4.97h.96zm0-9.9h-.96v-9.9h.96zm0-14.86h-.96v-8.07h.96zm0-29.73h-.96v-9.9h.96zm0-14.86h-.96v-4.95h.96z" stroke="#3a414a" stroke-width=".05" fill="#3a414a"/><path d="M500 1322.55h.48v.5h-.96v-.5z" fill="#3a414a"/><path stroke="#3a414a" stroke-width=".05" fill="#3a414a"/><path d="M517.38 1400l-14.26 4.63v-9.27z" fill="#3a414a"/><path d="M518.92 1400l-16.28 5.3v-10.6zm-15.33 3.98l12.25-3.98-12.26-3.98z" stroke="#3a414a" stroke-width=".05" fill="#3a414a"/><g><use xlink:href="#D" transform="matrix(1,0,0,1,465.0217013888889,1343.0202864453358) translate(0 17.22222222222222)"/></g><defs><path d="M613 24c-304 0-509-231-509-576 0-350 205-580 509-580 305 0 511 230 511 580 0 345-206 576-511 576zm0-161c226 0 329-195 329-415 0-222-103-419-329-419-223 0-326 196-326 419 0 220 103 415 326 415" id="E"/><path d="M338-670V0H158v-1118h173l1 207c72-158 192-221 342-221 226 0 378 139 378 422V0H872v-695c0-172-96-275-252-275-161 0-282 109-282 300" id="F"/><path d="M338-1490V0H158v-1490h180" id="G"/><path d="M158 0v-1118h180V0H158zm91-1301c-68 0-125-53-125-119s57-119 125-119c69 0 126 53 126 119s-57 119-126 119" id="H"/><path d="M628 24c-324 0-524-230-524-574 0-343 198-582 503-582 237 0 487 146 487 559v75H286c9 234 145 362 343 362 132 0 231-58 273-172l174 48C1024-91 857 24 628 24zM287-650h624c-17-190-120-322-304-322-192 0-309 151-320 322" id="I"/><g id="a"><use transform="matrix(0.010850694444444444,0,0,0.010850694444444444,0,0)" xlink:href="#E"/><use transform="matrix(0.010850694444444444,0,0,0.010850694444444444,13.324652777777777,0)" xlink:href="#F"/><use transform="matrix(0.010850694444444444,0,0,0.010850694444444444,26.453993055555554,0)" xlink:href="#G"/><use transform="matrix(0.010850694444444444,0,0,0.010850694444444444,31.8359375,0)" xlink:href="#H"/><use transform="matrix(0.010850694444444444,0,0,0.010850694444444444,37.21788194444444,0)" xlink:href="#F"/><use transform="matrix(0.010850694444444444,0,0,0.010850694444444444,50.34722222222222,0)" xlink:href="#I"/></g><path d="M538 24C308 24 148-78 108-271l171-41c32 123 123 178 257 178 156 0 256-77 256-169 0-77-54-128-164-154l-186-44c-203-48-300-148-300-305 0-192 176-326 414-326 230 0 351 112 402 269l-163 42c-31-80-94-158-238-158-133 0-233 69-233 162 0 83 57 129 188 160l169 40c203 48 298 149 298 302 0 196-179 339-441 339" id="J"/><path d="M338-670V0H158v-1490h180v566c73-149 190-208 336-208 226 0 379 139 379 422V0H872v-695c0-172-96-275-252-275-161 0-282 109-282 300" id="K"/><path d="M158 418v-1536h174v179h20c37-59 106-193 324-193 279 0 474 222 474 576 0 356-194 580-473 580-213 0-288-135-325-197h-14v591H158zm492-555c209 0 317-186 317-421 0-232-105-413-317-413-206 0-314 166-314 413 0 249 111 421 314 421" id="L"/><path d="M611 442c-248 0-391-105-460-228l146-94c47 65 117 165 314 165 178 0 307-82 307-266v-224h-17C863-141 792-18 576-18c-268 0-472-195-472-546 0-346 197-568 476-568 216 0 288 133 326 193h17v-179h175V29c0 289-215 413-487 413zm-5-620c203 0 314-146 314-390 0-237-108-403-314-403-213 0-319 180-319 403 0 230 109 390 319 390" id="M"/><g id="b"><use transform="matrix(0.010850694444444444,0,0,0.010850694444444444,0,0)" xlink:href="#J"/><use transform="matrix(0.010850694444444444,0,0,0.010850694444444444,11.729600694444445,0)" xlink:href="#K"/><use transform="matrix(0.010850694444444444,0,0,0.010850694444444444,24.869791666666664,0)" xlink:href="#E"/><use transform="matrix(0.010850694444444444,0,0,0.010850694444444444,38.19444444444444,0)" xlink:href="#L"/><use transform="matrix(0.010850694444444444,0,0,0.010850694444444444,51.80121527777778,0)" xlink:href="#L"/><use transform="matrix(0.010850694444444444,0,0,0.010850694444444444,65.4079861111111,0)" xlink:href="#H"/><use transform="matrix(0.010850694444444444,0,0,0.010850694444444444,70.78993055555554,0)" xlink:href="#F"/><use transform="matrix(0.010850694444444444,0,0,0.010850694444444444,83.91927083333331,0)" xlink:href="#M"/></g><path d="M613 24c-304 0-509-231-509-576 0-350 205-580 509-580 216 0 392 114 453 309l-173 49c-33-115-133-197-280-197-223 0-326 196-326 419 0 220 103 415 326 415 150 0 252-85 285-206l172 49C1010-95 832 24 613 24" id="N"/><path d="M537 14c-226 0-379-139-379-422v-710h180v695c0 172 97 275 253 275 160 0 281-109 281-300v-670h181V0H879v-209C806-46 684 14 537 14" id="O"/><path d="M598-1118v154H368v674c0 100 37 144 132 144 23 0 62-6 92-12L629-6c-37 13-88 20-134 20-193 0-307-107-307-290v-688H20v-154h168v-266h180v266h230" id="P"/><path d="M158 0v-1118h175l1 205c55-151 181-225 313-225 147 0 245 90 285 228 53-141 190-228 352-228 194 0 352 125 352 384V0h-181v-749c0-161-105-225-225-225-151 0-243 103-243 244V0H807v-767c0-124-93-207-219-207-131 0-250 92-250 270V0H158" id="Q"/><path d="M158 0v-1118h174v172h12c41-113 157-188 290-188 26 0 70 2 91 3v181c-11-2-60-10-108-10-161 0-279 109-279 260V0H158" id="R"/><g id="c"><use transform="matrix(0.010850694444444444,0,0,0.010850694444444444,0,0)" xlink:href="#N"/><use transform="matrix(0.010850694444444444,0,0,0.010850694444444444,12.6953125,0)" xlink:href="#O"/><use transform="matrix(0.010850694444444444,0,0,0.010850694444444444,25.83550347222222,0)" xlink:href="#J"/><use transform="matrix(0.010850694444444444,0,0,0.010850694444444444,37.565104166666664,0)" xlink:href="#P"/><use transform="matrix(0.010850694444444444,0,0,0.010850694444444444,44.61805555555556,0)" xlink:href="#E"/><use transform="matrix(0.010850694444444444,0,0,0.010850694444444444,57.94270833333333,0)" xlink:href="#Q"/><use transform="matrix(0.010850694444444444,0,0,0.010850694444444444,77.40885416666667,0)" xlink:href="#I"/><use transform="matrix(0.010850694444444444,0,0,0.010850694444444444,90.36458333333334,0)" xlink:href="#R"/></g><path d="M140 405l46-156c120 36 205 19 263-150l32-93L54-1118h197c107 313 237 620 324 950 87-331 219-637 326-950h196L606 167c-68 178-176 259-334 259-64 0-113-12-132-21" id="S"/><g id="d"><use transform="matrix(0.010850694444444444,0,0,0.010850694444444444,0,0)" xlink:href="#J"/><use transform="matrix(0.010850694444444444,0,0,0.010850694444444444,11.729600694444445,0)" xlink:href="#S"/><use transform="matrix(0.010850694444444444,0,0,0.010850694444444444,24.21875,0)" xlink:href="#J"/><use transform="matrix(0.010850694444444444,0,0,0.010850694444444444,35.94835069444444,0)" xlink:href="#P"/><use transform="matrix(0.010850694444444444,0,0,0.010850694444444444,43.001302083333336,0)" xlink:href="#I"/><use transform="matrix(0.010850694444444444,0,0,0.010850694444444444,55.95703125,0)" xlink:href="#Q"/></g><path d="M471 26C259 26 90-98 90-318c0-256 228-303 435-329 202-27 287-16 287-108 0-139-79-219-234-219-161 0-248 86-283 164l-173-57c86-203 278-265 451-265 150 0 419 46 419 395V0H815v-152h-12C765-73 660 26 471 26zm31-159c199 0 310-134 310-271v-155c-30 35-226 55-295 64-131 17-246 59-246 186 0 116 97 176 231 176" id="T"/><g id="e"><use transform="matrix(0.010850694444444444,0,0,0.010850694444444444,0,0)" xlink:href="#T"/><use transform="matrix(0.010850694444444444,0,0,0.010850694444444444,12.47829861111111,0)" xlink:href="#O"/><use transform="matrix(0.010850694444444444,0,0,0.010850694444444444,25.618489583333332,0)" xlink:href="#P"/><use transform="matrix(0.010850694444444444,0,0,0.010850694444444444,32.88845486111111,0)" xlink:href="#K"/><use transform="matrix(0.010850694444444444,0,0,0.010850694444444444,46.02864583333333,0)" xlink:href="#I"/><use transform="matrix(0.010850694444444444,0,0,0.010850694444444444,58.984374999999986,0)" xlink:href="#F"/><use transform="matrix(0.010850694444444444,0,0,0.010850694444444444,72.11371527777777,0)" xlink:href="#P"/><use transform="matrix(0.010850694444444444,0,0,0.010850694444444444,79.38368055555554,0)" xlink:href="#H"/><use transform="matrix(0.010850694444444444,0,0,0.010850694444444444,84.76562499999999,0)" xlink:href="#N"/><use transform="matrix(0.010850694444444444,0,0,0.010850694444444444,97.67795138888887,0)" xlink:href="#T"/><use transform="matrix(0.010850694444444444,0,0,0.010850694444444444,110.15624999999997,0)" xlink:href="#P"/><use transform="matrix(0.010850694444444444,0,0,0.010850694444444444,117.42621527777776,0)" xlink:href="#H"/><use transform="matrix(0.010850694444444444,0,0,0.010850694444444444,122.8081597222222,0)" xlink:href="#E"/><use transform="matrix(0.010850694444444444,0,0,0.010850694444444444,136.13281249999997,0)" xlink:href="#F"/></g><path d="M481 0L54-1118h197c107 314 236 620 325 951 87-331 217-637 324-951h197L670 0H481" id="U"/><path d="M409 0L70-1118h191c89 329 165 560 243 925 75-353 154-601 240-925h192c85 325 161 564 235 922 77-354 157-598 244-922h191L1267 0h-179c-86-307-176-590-250-913C763-588 675-308 588 0H409" id="V"/><g id="f"><use transform="matrix(0.008173828125000001,0,0,0.008173828125000001,0,0)" xlink:href="#U"/><use transform="matrix(0.008173828125000001,0,0,0.008173828125000001,9.408076171875,0)" xlink:href="#H"/><use transform="matrix(0.008173828125000001,0,0,0.008173828125000001,13.462294921875001,0)" xlink:href="#I"/><use transform="matrix(0.008173828125000001,0,0,0.008173828125000001,22.919414062500003,0)" xlink:href="#V"/></g><g id="g"><use transform="matrix(0.008173828125000001,0,0,0.008173828125000001,0,0)" xlink:href="#H"/><use transform="matrix(0.008173828125000001,0,0,0.008173828125000001,4.05421875,0)" xlink:href="#P"/><use transform="matrix(0.008173828125000001,0,0,0.008173828125000001,9.36720703125,0)" xlink:href="#I"/><use transform="matrix(0.008173828125000001,0,0,0.008173828125000001,19.126757812500003,0)" xlink:href="#Q"/></g><path d="M577 24c-279 0-473-224-473-580 0-354 195-576 474-576 218 0 287 134 324 193h14v-551h180V0H922v-173h-20C865-111 790 24 577 24zm27-161c203 0 314-172 314-421 0-247-108-413-314-413-212 0-317 181-317 413 0 235 108 421 317 421" id="W"/><g id="h"><use transform="matrix(0.008173828125000001,0,0,0.008173828125000001,0,0)" xlink:href="#T"/><use transform="matrix(0.008173828125000001,0,0,0.008173828125000001,9.399902343750002,0)" xlink:href="#W"/><use transform="matrix(0.008173828125000001,0,0,0.008173828125000001,19.649882812500003,0)" xlink:href="#W"/></g><g id="i"><use transform="matrix(0.008173828125000001,0,0,0.008173828125000001,0,0)" xlink:href="#P"/><use transform="matrix(0.008173828125000001,0,0,0.008173828125000001,5.312988281250001,0)" xlink:href="#E"/></g><g id="j"><use transform="matrix(0.008173828125000001,0,0,0.008173828125000001,0,0)" xlink:href="#N"/><use transform="matrix(0.008173828125000001,0,0,0.008173828125000001,9.726855468750001,0)" xlink:href="#T"/><use transform="matrix(0.008173828125000001,0,0,0.008173828125000001,19.126757812500003,0)" xlink:href="#R"/><use transform="matrix(0.008173828125000001,0,0,0.008173828125000001,25.690341796875003,0)" xlink:href="#P"/></g><path d="M158 0v-1490h180v865h22l478-493h223L593-638 1096 0H865L456-523 338-412V0H158" id="X"/><g id="k"><use transform="matrix(0.008173828125000001,0,0,0.008173828125000001,0,0)" xlink:href="#N"/><use transform="matrix(0.008173828125000001,0,0,0.008173828125000001,9.563378906250001,0)" xlink:href="#K"/><use transform="matrix(0.008173828125000001,0,0,0.008173828125000001,19.461884765625,0)" xlink:href="#I"/><use transform="matrix(0.008173828125000001,0,0,0.008173828125000001,29.221435546875,0)" xlink:href="#N"/><use transform="matrix(0.008173828125000001,0,0,0.008173828125000001,38.784814453125,0)" xlink:href="#X"/><use transform="matrix(0.008173828125000001,0,0,0.008173828125000001,47.59620117187501,0)" xlink:href="#E"/><use transform="matrix(0.008173828125000001,0,0,0.008173828125000001,57.63366210937501,0)" xlink:href="#O"/><use transform="matrix(0.008173828125000001,0,0,0.008173828125000001,67.53216796875002,0)" xlink:href="#P"/></g><g id="l"><use transform="matrix(0.008173828125000001,0,0,0.008173828125000001,0,0)" xlink:href="#G"/><use transform="matrix(0.008173828125000001,0,0,0.008173828125000001,4.05421875,0)" xlink:href="#E"/><use transform="matrix(0.008173828125000001,0,0,0.008173828125000001,14.091679687500001,0)" xlink:href="#M"/><use transform="matrix(0.008173828125000001,0,0,0.008173828125000001,24.358007812500002,0)" xlink:href="#H"/><use transform="matrix(0.008173828125000001,0,0,0.008173828125000001,28.412226562500003,0)" xlink:href="#F"/></g><g id="m"><use transform="matrix(0.010850694444444444,0,0,0.010850694444444444,0,0)" xlink:href="#H"/><use transform="matrix(0.010850694444444444,0,0,0.010850694444444444,5.381944444444445,0)" xlink:href="#F"/><use transform="matrix(0.010850694444444444,0,0,0.010850694444444444,18.51128472222222,0)" xlink:href="#N"/><use transform="matrix(0.010850694444444444,0,0,0.010850694444444444,31.20659722222222,0)" xlink:href="#G"/><use transform="matrix(0.010850694444444444,0,0,0.010850694444444444,36.588541666666664,0)" xlink:href="#O"/><use transform="matrix(0.010850694444444444,0,0,0.010850694444444444,49.728732638888886,0)" xlink:href="#W"/><use transform="matrix(0.010850694444444444,0,0,0.010850694444444444,63.33550347222221,0)" xlink:href="#I"/><use transform="matrix(0.010850694444444444,0,0,0.010850694444444444,76.29123263888889,0)" xlink:href="#J"/></g><g id="n"><use transform="matrix(0.008173828125000001,0,0,0.008173828125000001,0,0)" xlink:href="#W"/><use transform="matrix(0.008173828125000001,0,0,0.008173828125000001,10.249980468750001,0)" xlink:href="#H"/><use transform="matrix(0.008173828125000001,0,0,0.008173828125000001,14.304199218750002,0)" xlink:href="#J"/><use transform="matrix(0.008173828125000001,0,0,0.008173828125000001,23.140107421875,0)" xlink:href="#L"/><use transform="matrix(0.008173828125000001,0,0,0.008173828125000001,33.390087890625004,0)" xlink:href="#G"/><use transform="matrix(0.008173828125000001,0,0,0.008173828125000001,37.444306640625,0)" xlink:href="#T"/><use transform="matrix(0.008173828125000001,0,0,0.008173828125000001,46.598994140625,0)" xlink:href="#S"/></g><g id="o"><use transform="matrix(0.008173828125000001,0,0,0.008173828125000001,0,0)" xlink:href="#I"/><use transform="matrix(0.008173828125000001,0,0,0.008173828125000001,9.75955078125,0)" xlink:href="#R"/><use transform="matrix(0.008173828125000001,0,0,0.008173828125000001,16.323134765625,0)" xlink:href="#R"/><use transform="matrix(0.008173828125000001,0,0,0.008173828125000001,22.347246093749998,0)" xlink:href="#E"/><use transform="matrix(0.008173828125000001,0,0,0.008173828125000001,32.38470703125,0)" xlink:href="#R"/></g><path d="M678-1118v154H420V0H240v-964H20v-154h220v-149c0-194 155-293 318-293 85 0 141 18 168 30l-50 154c-19-6-47-17-97-17-111 0-159 58-159 166v109h258" id="Y"/><g id="p"><use transform="matrix(0.008173828125000001,0,0,0.008173828125000001,0,0)" xlink:href="#Y"/><use transform="matrix(0.008173828125000001,0,0,0.008173828125000001,5.705332031250001,0)" xlink:href="#E"/><use transform="matrix(0.008173828125000001,0,0,0.008173828125000001,15.742792968750003,0)" xlink:href="#R"/></g><g id="q"><use transform="matrix(0.008173828125000001,0,0,0.008173828125000001,0,0)" xlink:href="#V"/><use transform="matrix(0.008173828125000001,0,0,0.008173828125000001,13.6993359375,0)" xlink:href="#R"/><use transform="matrix(0.008173828125000001,0,0,0.008173828125000001,19.723447265625,0)" xlink:href="#E"/><use transform="matrix(0.008173828125000001,0,0,0.008173828125000001,29.760908203125002,0)" xlink:href="#F"/><use transform="matrix(0.008173828125000001,0,0,0.008173828125000001,39.651240234375,0)" xlink:href="#M"/></g><g id="r"><use transform="matrix(0.008173828125000001,0,0,0.008173828125000001,0,0)" xlink:href="#G"/><use transform="matrix(0.008173828125000001,0,0,0.008173828125000001,4.05421875,0)" xlink:href="#E"/><use transform="matrix(0.008173828125000001,0,0,0.008173828125000001,14.091679687500001,0)" xlink:href="#M"/><use transform="matrix(0.008173828125000001,0,0,0.008173828125000001,24.358007812500002,0)" xlink:href="#H"/><use transform="matrix(0.008173828125000001,0,0,0.008173828125000001,28.412226562500003,0)" xlink:href="#F"/></g><path fill="#333" d="M633 22C291 22 81-200 81-553c0-345 210-579 537-579 292 0 525 185 525 567v84H378c7 183 109 277 260 277 105 0 184-46 216-132l272 51C1071-99 893 22 633 22zM380-669h474c-15-146-94-237-233-237-143 0-229 99-241 237" id="Z"/><path fill="#333" d="M42 0l360-574-338-544h324c72 124 151 261 209 394 58-134 140-271 215-394h318L785-570 1146 0H824c-79-136-169-280-234-425C528-278 439-134 360 0H42" id="aa"/><path fill="#333" d="M683-1118v229H474v562c0 71 29 104 102 104 23 0 73-7 95-13l43 225C647 9 580 16 520 16 296 16 174-96 174-301v-588H20v-229h154v-266h300v266h209" id="ab"/><path fill="#333" d="M428-647V0H128v-1118h283l4 231c63-156 176-245 348-245 232 0 384 159 384 421V0H847v-659c0-139-76-222-202-222-128 0-217 86-217 234" id="ac"/><path fill="#333" d="M537 19C279 19 81-185 81-557c0-382 206-575 454-575 190 0 278 113 318 202h10v-560h300V0H868v-179h-15C812-89 719 19 537 19zm92-241c153 0 240-134 240-336 0-203-86-334-240-334-158 0-240 138-240 334 0 197 84 336 240 336" id="ad"/><g id="s"><use transform="matrix(0.008680555555555556,0,0,0.008680555555555556,0,0)" xlink:href="#Z"/><use transform="matrix(0.008680555555555556,0,0,0.008680555555555556,10.234375,0)" xlink:href="#aa"/><use transform="matrix(0.008680555555555556,0,0,0.008680555555555556,20.79861111111111,0)" xlink:href="#ab"/><use transform="matrix(0.008680555555555556,0,0,0.008680555555555556,27.135416666666668,0)" xlink:href="#Z"/><use transform="matrix(0.008680555555555556,0,0,0.008680555555555556,37.72569444444444,0)" xlink:href="#ac"/><use transform="matrix(0.008680555555555556,0,0,0.008680555555555556,48.79340277777778,0)" xlink:href="#ad"/></g><g id="t"><use transform="matrix(0.008173828125000001,0,0,0.008173828125000001,0,0)" xlink:href="#R"/><use transform="matrix(0.008173828125000001,0,0,0.008173828125000001,6.0241113281250005,0)" xlink:href="#I"/><use transform="matrix(0.008173828125000001,0,0,0.008173828125000001,15.783662109375001,0)" xlink:href="#M"/><use transform="matrix(0.008173828125000001,0,0,0.008173828125000001,26.049990234375002,0)" xlink:href="#H"/><use transform="matrix(0.008173828125000001,0,0,0.008173828125000001,30.104208984375003,0)" xlink:href="#J"/><use transform="matrix(0.008173828125000001,0,0,0.008173828125000001,38.94011718750001,0)" xlink:href="#P"/><use transform="matrix(0.008173828125000001,0,0,0.008173828125000001,44.25310546875001,0)" xlink:href="#I"/><use transform="matrix(0.008173828125000001,0,0,0.008173828125000001,54.012656250000006,0)" xlink:href="#R"/></g><g id="u"><use transform="matrix(0.008173828125000001,0,0,0.008173828125000001,0,0)" xlink:href="#F"/><use transform="matrix(0.008173828125000001,0,0,0.008173828125000001,9.89033203125,0)" xlink:href="#I"/><use transform="matrix(0.008173828125000001,0,0,0.008173828125000001,19.347451171875,0)" xlink:href="#V"/></g><g id="v"><use transform="matrix(0.008173828125000001,0,0,0.008173828125000001,0,0)" xlink:href="#T"/><use transform="matrix(0.008173828125000001,0,0,0.008173828125000001,9.399902343750002,0)" xlink:href="#N"/><use transform="matrix(0.008173828125000001,0,0,0.008173828125000001,18.96328125,0)" xlink:href="#N"/><use transform="matrix(0.008173828125000001,0,0,0.008173828125000001,28.526660156250003,0)" xlink:href="#E"/><use transform="matrix(0.008173828125000001,0,0,0.008173828125000001,38.56412109375,0)" xlink:href="#O"/><use transform="matrix(0.008173828125000001,0,0,0.008173828125000001,48.462626953125,0)" xlink:href="#F"/><use transform="matrix(0.008173828125000001,0,0,0.008173828125000001,58.35295898437501,0)" xlink:href="#P"/></g><g id="w"><use transform="matrix(0.008173828125000001,0,0,0.008173828125000001,0,0)" xlink:href="#N"/><use transform="matrix(0.008173828125000001,0,0,0.008173828125000001,9.563378906250001,0)" xlink:href="#K"/><use transform="matrix(0.008173828125000001,0,0,0.008173828125000001,19.461884765625,0)" xlink:href="#I"/><use transform="matrix(0.008173828125000001,0,0,0.008173828125000001,29.221435546875,0)" xlink:href="#N"/><use transform="matrix(0.008173828125000001,0,0,0.008173828125000001,38.784814453125,0)" xlink:href="#X"/></g><g id="x"><use transform="matrix(0.008173828125000001,0,0,0.008173828125000001,0,0)" xlink:href="#H"/><use transform="matrix(0.008173828125000001,0,0,0.008173828125000001,4.05421875,0)" xlink:href="#F"/><use transform="matrix(0.008173828125000001,0,0,0.008173828125000001,13.6993359375,0)" xlink:href="#U"/><use transform="matrix(0.008173828125000001,0,0,0.008173828125000001,22.780458984375002,0)" xlink:href="#I"/><use transform="matrix(0.008173828125000001,0,0,0.008173828125000001,32.540009765625,0)" xlink:href="#F"/><use transform="matrix(0.008173828125000001,0,0,0.008173828125000001,42.430341796875,0)" xlink:href="#P"/><use transform="matrix(0.008173828125000001,0,0,0.008173828125000001,47.743330078125,0)" xlink:href="#E"/><use transform="matrix(0.008173828125000001,0,0,0.008173828125000001,57.780791015625,0)" xlink:href="#R"/><use transform="matrix(0.008173828125000001,0,0,0.008173828125000001,64.344375,0)" xlink:href="#S"/></g><path fill="#333" d="M128 0v-1118h300V0H128zm150-1264c-91 0-165-68-165-154 0-85 74-154 165-154 90 0 165 69 165 154 0 86-75 154-165 154" id="ae"/><path fill="#333" d="M628 22C291 22 81-210 81-554c0-346 210-578 547-578 265 0 455 142 497 372l-279 52c-25-116-99-188-215-188-160 0-244 139-244 341 0 200 84 341 244 341 116 0 193-74 217-195l279 51C1085-123 896 22 628 22" id="af"/><path fill="#333" d="M428-1490V0H128v-1490h300" id="ag"/><path fill="#333" d="M513 14c-232 0-385-159-385-421v-711h300v659c0 139 76 222 202 222 127 0 217-86 217-234v-647h301V0H864l-4-232C797-74 683 14 513 14" id="ah"/><path fill="#333" d="M572 22C302 22 117-98 78-306l279-48c29 105 101 156 224 156 114 0 185-48 185-115 0-118-228-130-337-155-215-49-322-150-322-317 0-215 187-347 470-347 265 0 424 116 466 298l-266 47c-24-76-87-130-196-130-98 0-174 46-174 113 0 56 38 95 144 117l201 40c216 44 320 143 320 302 0 220-207 367-500 367" id="ai"/><g id="y"><use transform="matrix(0.008680555555555556,0,0,0.008680555555555556,0,0)" xlink:href="#ae"/><use transform="matrix(0.008680555555555556,0,0,0.008680555555555556,4.817708333333334,0)" xlink:href="#ac"/><use transform="matrix(0.008680555555555556,0,0,0.008680555555555556,15.885416666666668,0)" xlink:href="#af"/><use transform="matrix(0.008680555555555556,0,0,0.008680555555555556,26.345486111111118,0)" xlink:href="#ag"/><use transform="matrix(0.008680555555555556,0,0,0.008680555555555556,31.16319444444445,0)" xlink:href="#ah"/><use transform="matrix(0.008680555555555556,0,0,0.008680555555555556,42.230902777777786,0)" xlink:href="#ad"/><use transform="matrix(0.008680555555555556,0,0,0.008680555555555556,53.43750000000001,0)" xlink:href="#Z"/><use transform="matrix(0.008680555555555556,0,0,0.008680555555555556,64.02777777777779,0)" xlink:href="#ai"/></g><g id="z"><use transform="matrix(0.008173828125000001,0,0,0.008173828125000001,0,0)" xlink:href="#E"/><use transform="matrix(0.008173828125000001,0,0,0.008173828125000001,10.0374609375,0)" xlink:href="#O"/><use transform="matrix(0.008173828125000001,0,0,0.008173828125000001,19.935966796875,0)" xlink:href="#P"/></g><g id="A"><use transform="matrix(0.008173828125000001,0,0,0.008173828125000001,0,0)" xlink:href="#E"/><use transform="matrix(0.008173828125000001,0,0,0.008173828125000001,10.0374609375,0)" xlink:href="#Y"/></g><g id="B"><use transform="matrix(0.008173828125000001,0,0,0.008173828125000001,0,0)" xlink:href="#J"/><use transform="matrix(0.008173828125000001,0,0,0.008173828125000001,8.835908203125001,0)" xlink:href="#P"/><use transform="matrix(0.008173828125000001,0,0,0.008173828125000001,14.148896484375001,0)" xlink:href="#E"/><use transform="matrix(0.008173828125000001,0,0,0.008173828125000001,24.186357421875,0)" xlink:href="#N"/><use transform="matrix(0.008173828125000001,0,0,0.008173828125000001,33.749736328125,0)" xlink:href="#X"/></g><g id="C"><use transform="matrix(0.008173828125000001,0,0,0.008173828125000001,0,0)" xlink:href="#Q"/><use transform="matrix(0.008173828125000001,0,0,0.008173828125000001,14.663847656250002,0)" xlink:href="#I"/><use transform="matrix(0.008173828125000001,0,0,0.008173828125000001,24.42339843750001,0)" xlink:href="#J"/><use transform="matrix(0.008173828125000001,0,0,0.008173828125000001,33.259306640625006,0)" xlink:href="#J"/><use transform="matrix(0.008173828125000001,0,0,0.008173828125000001,42.09521484375001,0)" xlink:href="#T"/><use transform="matrix(0.008173828125000001,0,0,0.008173828125000001,51.49511718750001,0)" xlink:href="#M"/><use transform="matrix(0.008173828125000001,0,0,0.008173828125000001,61.76144531250001,0)" xlink:href="#I"/></g><g id="D"><use transform="matrix(0.008680555555555556,0,0,0.008680555555555556,0,0)" xlink:href="#Z"/><use transform="matrix(0.008680555555555556,0,0,0.008680555555555556,10.234375,0)" xlink:href="#aa"/><use transform="matrix(0.008680555555555556,0,0,0.008680555555555556,20.79861111111111,0)" xlink:href="#ab"/><use transform="matrix(0.008680555555555556,0,0,0.008680555555555556,27.135416666666668,0)" xlink:href="#Z"/><use transform="matrix(0.008680555555555556,0,0,0.008680555555555556,37.72569444444444,0)" xlink:href="#ac"/><use transform="matrix(0.008680555555555556,0,0,0.008680555555555556,48.79340277777778,0)" xlink:href="#ad"/><use transform="matrix(0.008680555555555556,0,0,0.008680555555555556,60,0)" xlink:href="#ai"/></g></defs></g></svg>