<svg xmlns="http://www.w3.org/2000/svg" xmlns:xlink="http://www.w3.org/1999/xlink" xmlns:lucid="lucid" width="1002" height="1077.64"><g transform="translate(21 -326.3333333333333)" lucid:page-tab-id="0_0"><path d="M-500 0h1500v1500H-500z" fill="#fff"/><path d="M291.33 327.33c22.1 0 40 17.9 40 40s-17.9 40-40 40h-80c-22.1 0-40-17.9-40-40s17.9-40 40-40z" stroke="#000" stroke-width="2" fill="#fff"/><use xlink:href="#a" transform="matrix(1,0,0,1,176.33333333333334,332.3333333333333) translate(35.991328125 25.90277777777778)"/><use xlink:href="#b" transform="matrix(1,0,0,1,176.33333333333334,332.3333333333333) translate(89.81077256944445 25.90277777777778)"/><use xlink:href="#c" transform="matrix(1,0,0,1,176.33333333333334,332.3333333333333) translate(19.43316840277778 58.16840277777778)"/><path d="M251.33 408.83v41.12" stroke="#3a414a" fill="none"/><path d="M251.8 408.85h-.94v-.52h.95z" stroke="#3a414a" stroke-width=".05" fill="#3a414a"/><path d="M251.33 464.7l-4.63-14.25h9.27z" stroke="#3a414a" fill="#3a414a"/><path d="M171.33 473.33a6 6 0 0 1 6-6h148a6 6 0 0 1 6 6v108a6 6 0 0 1-6 6h-148a6 6 0 0 1-6-6z" stroke="#000" stroke-width="2" fill="#fff"/><use xlink:href="#d" transform="matrix(1,0,0,1,176.33333333333334,472.33333333333326) translate(29.730902777777786 45.59027777777778)"/><use xlink:href="#e" transform="matrix(1,0,0,1,176.33333333333334,472.33333333333326) translate(43.766276041666664 77.85590277777777)"/><path d="M251.33 588.83v63.12" stroke="#3a414a" fill="none"/><path d="M251.8 588.85h-.94v-.52h.95z" stroke="#3a414a" stroke-width=".05" fill="#3a414a"/><path d="M251.33 666.7l-4.63-14.25h9.27z" stroke="#3a414a" fill="#3a414a"/><path d="M246.53 670.93a8 8 0 0 1 9.6 0l70.4 52.8a4.5 4.5 0 0 1 0 7.2l-70.4 52.8a8 8 0 0 1-9.6 0l-70.4-52.8a4.5 4.5 0 0 1 0-7.2z" stroke="#000" stroke-width="2" fill="#fff"/><use xlink:href="#f" transform="matrix(1,0,0,1,176.33333333333334,672.3333333333333) translate(24.376085069444443 46.950954861111114)"/><use xlink:href="#g" transform="matrix(1,0,0,1,176.33333333333334,672.3333333333333) translate(57.55750868055555 46.950954861111114)"/><use xlink:href="#h" transform="matrix(1,0,0,1,176.33333333333334,672.3333333333333) translate(69.189453125 46.950954861111114)"/><use xlink:href="#i" transform="matrix(1,0,0,1,176.33333333333334,672.3333333333333) translate(31.09809027777778 79.21657986111111)"/><path d="M157.64 819.78h-.95v-35.36h.94zm15.2-91.97h-9.66l-.88.08-.84.2-.8.33-.74.47-.66.56-.56.66-.46.73-.33.8-.2.84-.06.88v29.56h-.95v-29.58l.07-1 .23-1 .4-.93.53-.87.66-.78.76-.66.86-.54.94-.4 1-.22 1-.08h9.67z" stroke="#3a414a" stroke-width=".05" fill="#3a414a"/><path d="M173.33 727.33l.04.48h-.55v-.94h.55z" fill="#3a414a"/><path stroke="#3a414a" stroke-width=".05" fill="#3a414a"/><path d="M156.94 824.42l-14.32-4.44 14.2-4.83z" fill="#3a414a"/><path d="M157.43 825.07L141.08 820l16.2-5.5zm-13.28-5.1l12.3 3.8-.1-7.96z" stroke="#3a414a" stroke-width=".05" fill="#3a414a"/><use xlink:href="#j" transform="matrix(1,0,0,1,146.17926214398,762.9114583333333) translate(0 17.22222222222222)"/><path d="M-20 766a6 6 0 0 1 6-6h148a6 6 0 0 1 6 6v108a6 6 0 0 1-6 6H-14a6 6 0 0 1-6-6z" stroke="#000" stroke-width="2" fill="#fff"/><use xlink:href="#k" transform="matrix(1,0,0,1,-15,765) translate(9.749348958333329 45.59027777777778)"/><use xlink:href="#l" transform="matrix(1,0,0,1,-15,765) translate(59.31532118055555 45.59027777777778)"/><use xlink:href="#m" transform="matrix(1,0,0,1,-15,765) translate(94.82964409722221 45.59027777777778)"/><use xlink:href="#n" transform="matrix(1,0,0,1,-15,765) translate(29.730902777777786 77.85590277777777)"/><path d="M46.56 758.5V437.26a6 6 0 0 1 6-6h182.4" stroke="#3a414a" fill="none"/><path d="M47.03 759h-.95v-.5h.95z" stroke="#3a414a" stroke-width=".05" fill="#3a414a"/><path d="M249.72 431.26l-14.27 4.63v-9.28z" stroke="#3a414a" fill="#3a414a"/><path d="M344.64 818.45h-.95v-34.03h.94zm-5.46-91.5l1 .22.93.4.88.52.77.65.66.78.54.86.4.93.23 1 .07 1v29.58h-.95v-29.55l-.08-.88-.2-.84-.33-.8-.46-.74-.56-.67-.66-.56-.74-.46-.8-.32-.85-.2-.88-.07h-8.3v-.94h8.34z" stroke="#3a414a" stroke-width=".05" fill="#3a414a"/><path d="M329.85 727.8h-.56l.04-.47-.05-.47h.55z" fill="#3a414a"/><path stroke="#3a414a" stroke-width=".05" fill="#3a414a"/><path d="M357.4 819.83l-14.68 3.13.96-9.22z" fill="#3a414a"/><path d="M358.92 820l-16.74 3.56 1.1-10.52zm-15.66 2.36l12.6-2.7-11.77-5.22z" stroke="#3a414a" stroke-width=".05" fill="#3a414a"/><use xlink:href="#o" transform="matrix(1,0,0,1,328.7044184115755,762.9114583333333) translate(0 17.22222222222222)"/><path d="M360 766a6 6 0 0 1 6-6h148a6 6 0 0 1 6 6v108a6 6 0 0 1-6 6H366a6 6 0 0 1-6-6z" stroke="#000" stroke-width="2" fill="#fff"/><use xlink:href="#p" transform="matrix(1,0,0,1,365,765) translate(36.97374131944444 62.77777777777778)"/><use xlink:href="#q" transform="matrix(1,0,0,1,365,765) translate(94.51497395833333 62.77777777777778)"/><path d="M440 881.5v43.1" stroke="#3a414a" fill="none"/><path d="M440.48 881.5h-.96v-.5h.96z" stroke="#3a414a" stroke-width=".05" fill="#3a414a"/><path d="M440 939.38l-4.63-14.27h9.26z" stroke="#3a414a" fill="#3a414a"/><path d="M435.2 943.6a8 8 0 0 1 9.6 0l70.4 52.8a4.5 4.5 0 0 1 0 7.2l-70.4 52.8a8 8 0 0 1-9.6 0l-70.4-52.8a4.5 4.5 0 0 1 0-7.2z" stroke="#000" stroke-width="2" fill="#fff"/><use xlink:href="#r" transform="matrix(1,0,0,1,365,945) translate(12.59765625 46.950954861111114)"/><use xlink:href="#s" transform="matrix(1,0,0,1,365,945) translate(51.443142361111114 46.950954861111114)"/><use xlink:href="#t" transform="matrix(1,0,0,1,365,945) translate(102.76692708333334 46.950954861111114)"/><use xlink:href="#u" transform="matrix(1,0,0,1,365,945) translate(52.45225694444444 79.21657986111111)"/><path d="M347.64 1118.45h-.95v-47.7h.94zm13.86-117.98h-8.32l-.88.07-.84.2-.8.34-.74.45-.66.56-.56.65-.46.74-.33.8-.2.84-.06.88v43.22h-.95v-43.26l.07-1 .24-.98.4-.94.53-.87.65-.78.78-.66.86-.53.94-.4 1-.23 1-.08h8.34z" stroke="#3a414a" stroke-width=".05" fill="#3a414a"/><path d="M362 1000l.04.48h-.56v-.96h.56z" fill="#3a414a"/><path stroke="#3a414a" stroke-width=".05" fill="#3a414a"/><path d="M348.6 1122.96l-14.66-3.13 13.7-6.1z" fill="#3a414a"/><path d="M349.15 1123.56L332.4 1120l15.65-6.96zm-13.68-3.9l12.6 2.7-.83-7.92z" stroke="#3a414a" stroke-width=".05" fill="#3a414a"/><use xlink:href="#o" transform="matrix(1,0,0,1,331.7000954773133,1049.2447916666667) translate(0 17.22222222222222)"/><path d="M171.33 1066a6 6 0 0 1 6-6h148a6 6 0 0 1 6 6v108a6 6 0 0 1-6 6h-148a6 6 0 0 1-6-6z" stroke="#000" stroke-width="2" fill="#fff"/><use xlink:href="#v" transform="matrix(1,0,0,1,176.33333333333334,1065) translate(30.902777777777786 62.77777777777778)"/><use xlink:href="#w" transform="matrix(1,0,0,1,176.33333333333334,1065) translate(76.84461805555556 62.77777777777778)"/><path d="M548.98 1113.98l.07.88.2.85.33.8.45.75.57.66.66.57.74.45.8.33.84.2.88.08h8.1v.94h-8.14l-1-.07-.98-.24-.94-.4-.86-.52-.78-.66-.66-.77-.53-.86-.4-.94-.23-1-.07-.98v-43.26h.95zM543.5 999.6l1 .24.94.4.87.52.78.66.66.77.53.86.4.94.23 1 .08.98v43.26h-.95v-43.22l-.07-.88-.2-.85-.34-.8-.45-.75-.56-.66-.65-.57-.74-.45-.8-.33-.83-.2-.9-.07H518.5v-.96h24.02z" stroke="#3a414a" stroke-width=".05" fill="#3a414a"/><path d="M518.52 1000.48h-.56l.04-.48-.04-.48h.56z" fill="#3a414a"/><path stroke="#3a414a" stroke-width=".05" fill="#3a414a"/><path d="M577.38 1120l-14.26 4.63v-9.27z" fill="#3a414a"/><path d="M578.92 1120l-16.28 5.3v-10.6zm-15.33 3.98l12.25-3.98-12.26-3.98z" stroke="#3a414a" stroke-width=".05" fill="#3a414a"/><use xlink:href="#x" transform="matrix(1,0,0,1,536.2755989671311,1049.2447916666667) translate(0 17.22222222222222)"/><path d="M580 1066a6 6 0 0 1 6-6h148a6 6 0 0 1 6 6v108a6 6 0 0 1-6 6H586a6 6 0 0 1-6-6z" stroke="#000" stroke-width="2" fill="#fff"/><use xlink:href="#y" transform="matrix(1,0,0,1,585,1065) translate(36.77842881944444 45.59027777777778)"/><use xlink:href="#z" transform="matrix(1,0,0,1,585,1065) translate(28.18467881944445 77.85590277777777)"/><path d="M251.33 1058.5V976a6 6 0 0 0-6-6H66a6 6 0 0 1-6-6v-66.62" stroke="#3a414a" fill="none"/><path d="M251.8 1059h-.94v-.5h.95z" stroke="#3a414a" stroke-width=".05" fill="#3a414a"/><path d="M60 882.62l4.64 14.26h-9.27z" stroke="#3a414a" fill="#3a414a"/><path d="M660 1181.5v40.7" stroke="#3a414a" fill="none"/><path d="M660.48 1181.5h-.96v-.5h.96z" stroke="#3a414a" stroke-width=".05" fill="#3a414a"/><path d="M660 1236.95l-4.63-14.26h9.26z" stroke="#3a414a" fill="#3a414a"/><path d="M655.84 1241.34a5.8 5.8 0 0 1 8.32 0l71.68 74.34a6.22 6.22 0 0 1 0 8.64l-71.68 74.34a5.8 5.8 0 0 1-8.32 0l-71.68-74.34a6.22 6.22 0 0 1 0-8.64z" stroke="#000" stroke-width="2" fill="#fff"/><use xlink:href="#r" transform="matrix(1,0,0,1,585,1242.0247395833333) translate(11.539713541666664 21.55251736111112)"/><use xlink:href="#g" transform="matrix(1,0,0,1,585,1242.0247395833333) translate(50.38519965277778 21.55251736111112)"/><use xlink:href="#A" transform="matrix(1,0,0,1,585,1242.0247395833333) translate(62.01714409722222 21.55251736111112)"/><use xlink:href="#B" transform="matrix(1,0,0,1,585,1242.0247395833333) translate(24.793836805555557 53.81814236111112)"/><use xlink:href="#C" transform="matrix(1,0,0,1,585,1242.0247395833333) translate(49.55512152777778 53.81814236111112)"/><use xlink:href="#D" transform="matrix(1,0,0,1,585,1242.0247395833333) translate(38.080512152777786 86.08376736111111)"/><use xlink:href="#q" transform="matrix(1,0,0,1,585,1242.0247395833333) translate(93.408203125 86.08376736111111)"/><use xlink:href="#E" transform="matrix(1,0,0,1,585,1242.0247395833333) translate(29.730902777777786 118.34939236111111)"/><use xlink:href="#F" transform="matrix(1,0,0,1,585,1242.0247395833333) translate(40.58702256944445 150.61501736111111)"/><path d="M530.22 1320.47h-12.84v-.94h12.84zm50.7 0H552.2v-.94h28.72z" stroke="#3a414a" stroke-width=".05" fill="#3a414a"/><path d="M581.42 1320l.04.47h-.55v-.94h.56z" fill="#3a414a"/><path stroke="#3a414a" stroke-width=".05" fill="#3a414a"/><path d="M516.88 1324.63l-14.26-4.63 14.26-4.63z" fill="#3a414a"/><path d="M517.36 1325.3l-16.28-5.3 16.28-5.3zm-13.2-5.3l12.25 3.98v-7.96z" stroke="#3a414a" stroke-width=".05" fill="#3a414a"/><g><use xlink:href="#j" transform="matrix(1,0,0,1,530.2239534680842,1309.2447916666667) translate(0 17.22222222222222)"/></g><path d="M340 1243.03a6 6 0 0 1 6-6h148a6 6 0 0 1 6 6v153.94a6 6 0 0 1-6 6H346a6 6 0 0 1-6-6z" stroke="#000" stroke-width="2" fill="#fff"/><g><use xlink:href="#G" transform="matrix(1,0,0,1,345,1242.0247395833333) translate(18.06640625 84.90277777777777)"/><use xlink:href="#H" transform="matrix(1,0,0,1,345,1242.0247395833333) translate(67.70833333333333 84.90277777777777)"/></g><path d="M420 1235.53v-21.02a6 6 0 0 0-6-6H257.33a6 6 0 0 1-6-6v-5.12" stroke="#3a414a" fill="none"/><path d="M420.48 1236.03h-.96v-.52h.96z" stroke="#3a414a" stroke-width=".05" fill="#3a414a"/><path d="M251.33 1182.62l4.64 14.26h-9.27z" stroke="#3a414a" fill="#3a414a"/><path d="M763.33 1320.47h-24.25v-.94h24.25zm39.3 0h-8.38v-.94h8.37z" stroke="#3a414a" stroke-width=".05" fill="#3a414a"/><path d="M739.1 1320.47h-.56l.04-.47-.04-.47h.55z" fill="#3a414a"/><path stroke="#3a414a" stroke-width=".05" fill="#3a414a"/><path d="M817.38 1320l-14.26 4.63v-9.27z" fill="#3a414a"/><path d="M818.92 1320l-16.28 5.3v-10.6zm-15.33 3.98l12.25-3.98-12.26-3.98z" stroke="#3a414a" stroke-width=".05" fill="#3a414a"/><g><use xlink:href="#o" transform="matrix(1,0,0,1,763.3263937605441,1309.2447916666667) translate(0 17.22222222222222)"/></g><path d="M820 1243.03a6 6 0 0 1 6-6h148a6 6 0 0 1 6 6v153.94a6 6 0 0 1-6 6H826a6 6 0 0 1-6-6z" stroke="#000" stroke-width="2" fill="#fff"/><g><use xlink:href="#I" transform="matrix(1,0,0,1,825,1242.0247395833333) translate(17.453342013888886 84.90277777777777)"/><use xlink:href="#H" transform="matrix(1,0,0,1,825,1242.0247395833333) translate(68.32139756944444 84.90277777777777)"/></g><path d="M880.2 430.86l1 .24.94.4.87.52.78.66.66.77.53.87.4.94.23.98.07 1v798.3h-.95V437.27l-.07-.9-.2-.83-.33-.8-.45-.74-.57-.65-.65-.56-.75-.46-.8-.34-.84-.2-.88-.07h-611.7v-.95h611.74z" stroke="#3a414a" stroke-width=".05" fill="#3a414a"/><path d="M885.67 1236.03h-.95v-.52h.95z" fill="#3a414a"/><path stroke="#3a414a" stroke-width=".05" fill="#3a414a"/><path d="M267.15 435.9l-14.2-4.85 14.33-4.43z" fill="#3a414a"/><path d="M267.62 436.55l-16.2-5.52 16.34-5.06zm-13.13-5.47l12.2 4.15.1-7.97z" stroke="#3a414a" stroke-width=".05" fill="#3a414a"/><defs><path d="M538 24C308 24 148-78 108-271l171-41c32 123 123 178 257 178 156 0 256-77 256-169 0-77-54-128-164-154l-186-44c-203-48-300-148-300-305 0-192 176-326 414-326 230 0 351 112 402 269l-163 42c-31-80-94-158-238-158-133 0-233 69-233 162 0 83 57 129 188 160l169 40c203 48 298 149 298 302 0 196-179 339-441 339" id="J"/><path d="M598-1118v154H368v674c0 100 37 144 132 144 23 0 62-6 92-12L629-6c-37 13-88 20-134 20-193 0-307-107-307-290v-688H20v-154h168v-266h180v266h230" id="K"/><path d="M471 26C259 26 90-98 90-318c0-256 228-303 435-329 202-27 287-16 287-108 0-139-79-219-234-219-161 0-248 86-283 164l-173-57c86-203 278-265 451-265 150 0 419 46 419 395V0H815v-152h-12C765-73 660 26 471 26zm31-159c199 0 310-134 310-271v-155c-30 35-226 55-295 64-131 17-246 59-246 186 0 116 97 176 231 176" id="L"/><path d="M158 0v-1118h174v172h12c41-113 157-188 290-188 26 0 70 2 91 3v181c-11-2-60-10-108-10-161 0-279 109-279 260V0H158" id="M"/><g id="a"><use transform="matrix(0.010850694444444444,0,0,0.010850694444444444,0,0)" xlink:href="#J"/><use transform="matrix(0.010850694444444444,0,0,0.010850694444444444,11.729600694444445,0)" xlink:href="#K"/><use transform="matrix(0.010850694444444444,0,0,0.010850694444444444,19.108072916666668,0)" xlink:href="#L"/><use transform="matrix(0.010850694444444444,0,0,0.010850694444444444,31.586371527777775,0)" xlink:href="#M"/><use transform="matrix(0.010850694444444444,0,0,0.010850694444444444,40.299479166666664,0)" xlink:href="#K"/></g><g id="b"><use transform="matrix(0.010850694444444444,0,0,0.010850694444444444,0,0)" xlink:href="#L"/><use transform="matrix(0.010850694444444444,0,0,0.010850694444444444,12.47829861111111,0)" xlink:href="#J"/></g><path d="M613 24c-304 0-509-231-509-576 0-350 205-580 509-580 216 0 392 114 453 309l-173 49c-33-115-133-197-280-197-223 0-326 196-326 419 0 220 103 415 326 415 150 0 252-85 285-206l172 49C1010-95 832 24 613 24" id="N"/><path d="M613 24c-304 0-509-231-509-576 0-350 205-580 509-580 305 0 511 230 511 580 0 345-206 576-511 576zm0-161c226 0 329-195 329-415 0-222-103-419-329-419-223 0-326 196-326 419 0 220 103 415 326 415" id="O"/><path d="M338-670V0H158v-1118h173l1 207c72-158 192-221 342-221 226 0 378 139 378 422V0H872v-695c0-172-96-275-252-275-161 0-282 109-282 300" id="P"/><path d="M628 24c-324 0-524-230-524-574 0-343 198-582 503-582 237 0 487 146 487 559v75H286c9 234 145 362 343 362 132 0 231-58 273-172l174 48C1024-91 857 24 628 24zM287-650h624c-17-190-120-322-304-322-192 0-309 151-320 322" id="Q"/><g id="c"><use transform="matrix(0.010850694444444444,0,0,0.010850694444444444,0,0)" xlink:href="#N"/><use transform="matrix(0.010850694444444444,0,0,0.010850694444444444,12.6953125,0)" xlink:href="#O"/><use transform="matrix(0.010850694444444444,0,0,0.010850694444444444,26.01996527777778,0)" xlink:href="#P"/><use transform="matrix(0.010850694444444444,0,0,0.010850694444444444,39.14930555555556,0)" xlink:href="#K"/><use transform="matrix(0.010850694444444444,0,0,0.010850694444444444,46.20225694444445,0)" xlink:href="#Q"/><use transform="matrix(0.010850694444444444,0,0,0.010850694444444444,59.15798611111112,0)" xlink:href="#J"/><use transform="matrix(0.010850694444444444,0,0,0.010850694444444444,70.88758680555556,0)" xlink:href="#K"/><use transform="matrix(0.010850694444444444,0,0,0.010850694444444444,78.26605902777777,0)" xlink:href="#L"/><use transform="matrix(0.010850694444444444,0,0,0.010850694444444444,90.74435763888889,0)" xlink:href="#P"/><use transform="matrix(0.010850694444444444,0,0,0.010850694444444444,103.87369791666666,0)" xlink:href="#K"/></g><path d="M1096 418H916v-591h-14C865-111 790 24 577 24c-279 0-473-224-473-580 0-354 195-576 474-576 218 0 287 134 324 193h20v-179h174V418zM604-137c203 0 314-172 314-421 0-247-108-413-314-413-212 0-317 181-317 413 0 235 108 421 317 421" id="R"/><path d="M537 14c-226 0-379-139-379-422v-710h180v695c0 172 97 275 253 275 160 0 281-109 281-300v-670h181V0H879v-209C806-46 684 14 537 14" id="S"/><path d="M158 0v-1118h180V0H158zm91-1301c-68 0-125-53-125-119s57-119 125-119c69 0 126 53 126 119s-57 119-126 119" id="T"/><g id="d"><use transform="matrix(0.010850694444444444,0,0,0.010850694444444444,0,0)" xlink:href="#R"/><use transform="matrix(0.010850694444444444,0,0,0.010850694444444444,13.606770833333332,0)" xlink:href="#S"/><use transform="matrix(0.010850694444444444,0,0,0.010850694444444444,26.746961805555554,0)" xlink:href="#Q"/><use transform="matrix(0.010850694444444444,0,0,0.010850694444444444,39.70269097222222,0)" xlink:href="#J"/><use transform="matrix(0.010850694444444444,0,0,0.010850694444444444,51.432291666666664,0)" xlink:href="#K"/><use transform="matrix(0.010850694444444444,0,0,0.010850694444444444,58.70225694444444,0)" xlink:href="#T"/><use transform="matrix(0.010850694444444444,0,0,0.010850694444444444,64.08420138888889,0)" xlink:href="#O"/><use transform="matrix(0.010850694444444444,0,0,0.010850694444444444,77.40885416666666,0)" xlink:href="#P"/></g><path d="M158 0v-1490h180v865h22l478-493h223L593-638 1096 0H865L456-523 338-412V0H158" id="U"/><path d="M577 24c-279 0-473-224-473-580 0-354 195-576 474-576 218 0 287 134 324 193h14v-551h180V0H922v-173h-20C865-111 790 24 577 24zm27-161c203 0 314-172 314-421 0-247-108-413-314-413-212 0-317 181-317 413 0 235 108 421 317 421" id="V"/><g id="e"><use transform="matrix(0.010850694444444444,0,0,0.010850694444444444,0,0)" xlink:href="#L"/><use transform="matrix(0.010850694444444444,0,0,0.010850694444444444,12.47829861111111,0)" xlink:href="#J"/><use transform="matrix(0.010850694444444444,0,0,0.010850694444444444,24.207899305555554,0)" xlink:href="#U"/><use transform="matrix(0.010850694444444444,0,0,0.010850694444444444,35.90494791666667,0)" xlink:href="#Q"/><use transform="matrix(0.010850694444444444,0,0,0.010850694444444444,48.86067708333333,0)" xlink:href="#V"/></g><g id="f"><use transform="matrix(0.010850694444444444,0,0,0.010850694444444444,0,0)" xlink:href="#V"/><use transform="matrix(0.010850694444444444,0,0,0.010850694444444444,13.606770833333332,0)" xlink:href="#O"/></g><use transform="matrix(0.010850694444444444,0,0,0.010850694444444444,0,0)" xlink:href="#T" id="g"/><path d="M409 0L70-1118h191c89 329 165 560 243 925 75-353 154-601 240-925h192c85 325 161 564 235 922 77-354 157-598 244-922h191L1267 0h-179c-86-307-176-590-250-913C763-588 675-308 588 0H409" id="W"/><g id="h"><use transform="matrix(0.010850694444444444,0,0,0.010850694444444444,0,0)" xlink:href="#U"/><use transform="matrix(0.010850694444444444,0,0,0.010850694444444444,12.196180555555555,0)" xlink:href="#P"/><use transform="matrix(0.010850694444444444,0,0,0.010850694444444444,25.325520833333332,0)" xlink:href="#O"/><use transform="matrix(0.010850694444444444,0,0,0.010850694444444444,38.248697916666664,0)" xlink:href="#W"/></g><path d="M383-449c-3-277 82-343 222-425 88-53 156-134 156-250 0-139-108-227-243-227-118 0-235 70-246 236H82c10-251 200-395 436-395 259 0 427 165 427 393 0 161-74 273-203 352-132 80-180 132-178 316H383zm93 462c-75 0-135-60-135-134 0-75 60-135 135-135 74 0 134 60 134 135 0 74-60 134-134 134" id="X"/><g id="i"><use transform="matrix(0.010850694444444444,0,0,0.010850694444444444,0,0)" xlink:href="#L"/><use transform="matrix(0.010850694444444444,0,0,0.010850694444444444,12.47829861111111,0)" xlink:href="#P"/><use transform="matrix(0.010850694444444444,0,0,0.010850694444444444,25.60763888888889,0)" xlink:href="#J"/><use transform="matrix(0.010850694444444444,0,0,0.010850694444444444,37.33723958333333,0)" xlink:href="#W"/><use transform="matrix(0.010850694444444444,0,0,0.010850694444444444,55.12152777777778,0)" xlink:href="#Q"/><use transform="matrix(0.010850694444444444,0,0,0.010850694444444444,68.07725694444444,0)" xlink:href="#M"/><use transform="matrix(0.010850694444444444,0,0,0.010850694444444444,76.44314236111111,0)" xlink:href="#X"/></g><path fill="#333" d="M428-647V0H128v-1118h283l4 231c63-156 176-245 348-245 232 0 384 159 384 421V0H847v-659c0-139-76-222-202-222-128 0-217 86-217 234" id="Y"/><path fill="#333" d="M628 22C291 22 81-210 81-554c0-346 210-578 547-578 336 0 547 232 547 578 0 344-211 576-547 576zm0-236c160 0 242-146 242-341 0-197-82-341-242-341S387-753 387-555c0 195 81 341 241 341" id="Z"/><g id="j"><use transform="matrix(0.008680555555555556,0,0,0.008680555555555556,0,0)" xlink:href="#Y"/><use transform="matrix(0.008680555555555556,0,0,0.008680555555555556,11.067708333333334,0)" xlink:href="#Z"/></g><g id="k"><use transform="matrix(0.010850694444444444,0,0,0.010850694444444444,0,0)" xlink:href="#W"/><use transform="matrix(0.010850694444444444,0,0,0.010850694444444444,18.18576388888889,0)" xlink:href="#L"/><use transform="matrix(0.010850694444444444,0,0,0.010850694444444444,30.6640625,0)" xlink:href="#T"/><use transform="matrix(0.010850694444444444,0,0,0.010850694444444444,36.04600694444444,0)" xlink:href="#K"/></g><path d="M678-1118v154H420V0H240v-964H20v-154h220v-149c0-194 155-293 318-293 85 0 141 18 168 30l-50 154c-19-6-47-17-97-17-111 0-159 58-159 166v109h258" id="aa"/><g id="l"><use transform="matrix(0.010850694444444444,0,0,0.010850694444444444,0,0)" xlink:href="#aa"/><use transform="matrix(0.010850694444444444,0,0,0.010850694444444444,7.573784722222222,0)" xlink:href="#O"/><use transform="matrix(0.010850694444444444,0,0,0.010850694444444444,20.8984375,0)" xlink:href="#M"/></g><path d="M65 0l393-574-370-544h210c88 136 192 297 267 435 67-142 176-302 264-435h206L661-564 1053 0H844c-94-144-206-310-287-458C484-308 366-142 273 0H65" id="ab"/><g id="m"><use transform="matrix(0.010850694444444444,0,0,0.010850694444444444,0,0)" xlink:href="#P"/><use transform="matrix(0.010850694444444444,0,0,0.010850694444444444,13.129340277777777,0)" xlink:href="#Q"/><use transform="matrix(0.010850694444444444,0,0,0.010850694444444444,25.5859375,0)" xlink:href="#ab"/><use transform="matrix(0.010850694444444444,0,0,0.010850694444444444,38.15104166666667,0)" xlink:href="#K"/></g><g id="n"><use transform="matrix(0.010850694444444444,0,0,0.010850694444444444,0,0)" xlink:href="#R"/><use transform="matrix(0.010850694444444444,0,0,0.010850694444444444,13.606770833333332,0)" xlink:href="#S"/><use transform="matrix(0.010850694444444444,0,0,0.010850694444444444,26.746961805555554,0)" xlink:href="#Q"/><use transform="matrix(0.010850694444444444,0,0,0.010850694444444444,39.70269097222222,0)" xlink:href="#J"/><use transform="matrix(0.010850694444444444,0,0,0.010850694444444444,51.432291666666664,0)" xlink:href="#K"/><use transform="matrix(0.010850694444444444,0,0,0.010850694444444444,58.70225694444444,0)" xlink:href="#T"/><use transform="matrix(0.010850694444444444,0,0,0.010850694444444444,64.08420138888889,0)" xlink:href="#O"/><use transform="matrix(0.010850694444444444,0,0,0.010850694444444444,77.40885416666666,0)" xlink:href="#P"/></g><path fill="#333" d="M120 396l69-226c123 42 245 23 254-107l8-60L31-1118h319c87 288 199 559 259 872 72-308 185-583 277-872h315L726 132c-68 181-186 294-410 294-79 0-153-13-196-30" id="ac"/><path fill="#333" d="M633 22C291 22 81-200 81-553c0-345 210-579 537-579 292 0 525 185 525 567v84H378c7 183 109 277 260 277 105 0 184-46 216-132l272 51C1071-99 893 22 633 22zM380-669h474c-15-146-94-237-233-237-143 0-229 99-241 237" id="ad"/><path fill="#333" d="M572 22C302 22 117-98 78-306l279-48c29 105 101 156 224 156 114 0 185-48 185-115 0-118-228-130-337-155-215-49-322-150-322-317 0-215 187-347 470-347 265 0 424 116 466 298l-266 47c-24-76-87-130-196-130-98 0-174 46-174 113 0 56 38 95 144 117l201 40c216 44 320 143 320 302 0 220-207 367-500 367" id="ae"/><g id="o"><use transform="matrix(0.008680555555555556,0,0,0.008680555555555556,0,0)" xlink:href="#ac"/><use transform="matrix(0.008680555555555556,0,0,0.008680555555555556,10.381944444444445,0)" xlink:href="#ad"/><use transform="matrix(0.008680555555555556,0,0,0.008680555555555556,20.97222222222222,0)" xlink:href="#ae"/></g><path d="M677 24c-213 0-288-135-325-197h-20V0H158v-1490h180v551h14c37-59 106-193 324-193 279 0 474 222 474 576 0 356-194 580-473 580zm-27-161c209 0 317-186 317-421 0-232-105-413-317-413-206 0-314 166-314 413 0 249 111 421 314 421" id="af"/><path d="M126 0v-134l627-806v-11H146v-167h839v143L376-178v11h629V0H126" id="ag"/><g id="p"><use transform="matrix(0.010850694444444444,0,0,0.010850694444444444,0,0)" xlink:href="#af"/><use transform="matrix(0.010850694444444444,0,0,0.010850694444444444,13.606770833333332,0)" xlink:href="#S"/><use transform="matrix(0.010850694444444444,0,0,0.010850694444444444,26.746961805555554,0)" xlink:href="#ag"/><use transform="matrix(0.010850694444444444,0,0,0.010850694444444444,39.01909722222222,0)" xlink:href="#ag"/></g><g id="q"><use transform="matrix(0.010850694444444444,0,0,0.010850694444444444,0,0)" xlink:href="#T"/><use transform="matrix(0.010850694444444444,0,0,0.010850694444444444,5.381944444444445,0)" xlink:href="#P"/></g><g id="r"><use transform="matrix(0.010850694444444444,0,0,0.010850694444444444,0,0)" xlink:href="#V"/><use transform="matrix(0.010850694444444444,0,0,0.010850694444444444,13.606770833333332,0)" xlink:href="#T"/><use transform="matrix(0.010850694444444444,0,0,0.010850694444444444,18.98871527777778,0)" xlink:href="#V"/></g><path d="M158 0v-1118h175l1 205c55-151 181-225 313-225 147 0 245 90 285 228 53-141 190-228 352-228 194 0 352 125 352 384V0h-181v-749c0-161-105-225-225-225-151 0-243 103-243 244V0H807v-767c0-124-93-207-219-207-131 0-250 92-250 270V0H158" id="ah"/><g id="s"><use transform="matrix(0.010850694444444444,0,0,0.010850694444444444,0,0)" xlink:href="#K"/><use transform="matrix(0.010850694444444444,0,0,0.010850694444444444,7.269965277777778,0)" xlink:href="#T"/><use transform="matrix(0.010850694444444444,0,0,0.010850694444444444,12.651909722222221,0)" xlink:href="#ah"/><use transform="matrix(0.010850694444444444,0,0,0.010850694444444444,32.11805555555556,0)" xlink:href="#Q"/></g><g id="t"><use transform="matrix(0.010850694444444444,0,0,0.010850694444444444,0,0)" xlink:href="#M"/><use transform="matrix(0.010850694444444444,0,0,0.010850694444444444,8.365885416666666,0)" xlink:href="#S"/><use transform="matrix(0.010850694444444444,0,0,0.010850694444444444,21.506076388888886,0)" xlink:href="#P"/></g><g id="u"><use transform="matrix(0.010850694444444444,0,0,0.010850694444444444,0,0)" xlink:href="#O"/><use transform="matrix(0.010850694444444444,0,0,0.010850694444444444,13.324652777777777,0)" xlink:href="#S"/><use transform="matrix(0.010850694444444444,0,0,0.010850694444444444,26.46484375,0)" xlink:href="#K"/><use transform="matrix(0.010850694444444444,0,0,0.010850694444444444,33.73480902777778,0)" xlink:href="#X"/></g><g id="v"><use transform="matrix(0.010850694444444444,0,0,0.010850694444444444,0,0)" xlink:href="#Q"/><use transform="matrix(0.010850694444444444,0,0,0.010850694444444444,12.955729166666666,0)" xlink:href="#P"/><use transform="matrix(0.010850694444444444,0,0,0.010850694444444444,26.085069444444443,0)" xlink:href="#V"/></g><g id="w"><use transform="matrix(0.010850694444444444,0,0,0.010850694444444444,0,0)" xlink:href="#K"/><use transform="matrix(0.010850694444444444,0,0,0.010850694444444444,7.269965277777778,0)" xlink:href="#S"/><use transform="matrix(0.010850694444444444,0,0,0.010850694444444444,20.41015625,0)" xlink:href="#M"/><use transform="matrix(0.010850694444444444,0,0,0.010850694444444444,29.12326388888889,0)" xlink:href="#P"/></g><path fill="#333" d="M135 0v-1490h340l471 754c59 97 122 210 187 365-32-387-14-721-19-1119h312V0h-341C855-382 627-689 427-1113c32 420 16 695 20 1113H135" id="ai"/><g id="x"><use transform="matrix(0.008680555555555556,0,0,0.008680555555555556,0,0)" xlink:href="#ai"/><use transform="matrix(0.008680555555555556,0,0,0.008680555555555556,13.550347222222223,0)" xlink:href="#Z"/></g><g id="y"><use transform="matrix(0.010850694444444444,0,0,0.010850694444444444,0,0)" xlink:href="#L"/><use transform="matrix(0.010850694444444444,0,0,0.010850694444444444,12.47829861111111,0)" xlink:href="#P"/><use transform="matrix(0.010850694444444444,0,0,0.010850694444444444,25.60763888888889,0)" xlink:href="#J"/><use transform="matrix(0.010850694444444444,0,0,0.010850694444444444,37.33723958333333,0)" xlink:href="#W"/><use transform="matrix(0.010850694444444444,0,0,0.010850694444444444,55.12152777777778,0)" xlink:href="#Q"/><use transform="matrix(0.010850694444444444,0,0,0.010850694444444444,68.07725694444444,0)" xlink:href="#M"/></g><path d="M338-1490V0H158v-1490h180" id="aj"/><path d="M140 405l46-156c120 36 205 19 263-150l32-93L54-1118h197c107 313 237 620 324 950 87-331 219-637 326-950h196L606 167c-68 178-176 259-334 259-64 0-113-12-132-21" id="ak"/><g id="z"><use transform="matrix(0.010850694444444444,0,0,0.010850694444444444,0,0)" xlink:href="#N"/><use transform="matrix(0.010850694444444444,0,0,0.010850694444444444,12.6953125,0)" xlink:href="#O"/><use transform="matrix(0.010850694444444444,0,0,0.010850694444444444,26.01996527777778,0)" xlink:href="#M"/><use transform="matrix(0.010850694444444444,0,0,0.010850694444444444,34.733072916666664,0)" xlink:href="#M"/><use transform="matrix(0.010850694444444444,0,0,0.010850694444444444,42.730034722222214,0)" xlink:href="#Q"/><use transform="matrix(0.010850694444444444,0,0,0.010850694444444444,55.68576388888888,0)" xlink:href="#N"/><use transform="matrix(0.010850694444444444,0,0,0.010850694444444444,68.38107638888889,0)" xlink:href="#K"/><use transform="matrix(0.010850694444444444,0,0,0.010850694444444444,75.65104166666666,0)" xlink:href="#aj"/><use transform="matrix(0.010850694444444444,0,0,0.010850694444444444,81.14149305555554,0)" xlink:href="#ak"/></g><g id="A"><use transform="matrix(0.010850694444444444,0,0,0.010850694444444444,0,0)" xlink:href="#L"/><use transform="matrix(0.010850694444444444,0,0,0.010850694444444444,12.47829861111111,0)" xlink:href="#P"/><use transform="matrix(0.010850694444444444,0,0,0.010850694444444444,25.60763888888889,0)" xlink:href="#J"/><use transform="matrix(0.010850694444444444,0,0,0.010850694444444444,37.33723958333333,0)" xlink:href="#W"/><use transform="matrix(0.010850694444444444,0,0,0.010850694444444444,55.12152777777778,0)" xlink:href="#Q"/><use transform="matrix(0.010850694444444444,0,0,0.010850694444444444,68.07725694444444,0)" xlink:href="#M"/></g><g id="B"><use transform="matrix(0.010850694444444444,0,0,0.010850694444444444,0,0)" xlink:href="#T"/><use transform="matrix(0.010850694444444444,0,0,0.010850694444444444,5.381944444444445,0)" xlink:href="#P"/></g><g id="C"><use transform="matrix(0.010850694444444444,0,0,0.010850694444444444,0,0)" xlink:href="#N"/><use transform="matrix(0.010850694444444444,0,0,0.010850694444444444,12.6953125,0)" xlink:href="#O"/><use transform="matrix(0.010850694444444444,0,0,0.010850694444444444,26.01996527777778,0)" xlink:href="#M"/><use transform="matrix(0.010850694444444444,0,0,0.010850694444444444,34.733072916666664,0)" xlink:href="#M"/><use transform="matrix(0.010850694444444444,0,0,0.010850694444444444,42.730034722222214,0)" xlink:href="#Q"/><use transform="matrix(0.010850694444444444,0,0,0.010850694444444444,55.68576388888888,0)" xlink:href="#N"/><use transform="matrix(0.010850694444444444,0,0,0.010850694444444444,68.38107638888889,0)" xlink:href="#K"/></g><g id="D"><use transform="matrix(0.010850694444444444,0,0,0.010850694444444444,0,0)" xlink:href="#aa"/><use transform="matrix(0.010850694444444444,0,0,0.010850694444444444,7.573784722222222,0)" xlink:href="#O"/><use transform="matrix(0.010850694444444444,0,0,0.010850694444444444,20.8984375,0)" xlink:href="#M"/><use transform="matrix(0.010850694444444444,0,0,0.010850694444444444,29.61154513888889,0)" xlink:href="#ah"/></g><g id="E"><use transform="matrix(0.010850694444444444,0,0,0.010850694444444444,0,0)" xlink:href="#R"/><use transform="matrix(0.010850694444444444,0,0,0.010850694444444444,13.606770833333332,0)" xlink:href="#S"/><use transform="matrix(0.010850694444444444,0,0,0.010850694444444444,26.746961805555554,0)" xlink:href="#Q"/><use transform="matrix(0.010850694444444444,0,0,0.010850694444444444,39.70269097222222,0)" xlink:href="#J"/><use transform="matrix(0.010850694444444444,0,0,0.010850694444444444,51.432291666666664,0)" xlink:href="#K"/><use transform="matrix(0.010850694444444444,0,0,0.010850694444444444,58.70225694444444,0)" xlink:href="#T"/><use transform="matrix(0.010850694444444444,0,0,0.010850694444444444,64.08420138888889,0)" xlink:href="#O"/><use transform="matrix(0.010850694444444444,0,0,0.010850694444444444,77.40885416666666,0)" xlink:href="#P"/></g><g id="F"><use transform="matrix(0.010850694444444444,0,0,0.010850694444444444,0,0)" xlink:href="#aa"/><use transform="matrix(0.010850694444444444,0,0,0.010850694444444444,7.573784722222222,0)" xlink:href="#O"/><use transform="matrix(0.010850694444444444,0,0,0.010850694444444444,20.8984375,0)" xlink:href="#M"/><use transform="matrix(0.010850694444444444,0,0,0.010850694444444444,29.61154513888889,0)" xlink:href="#ah"/><use transform="matrix(0.010850694444444444,0,0,0.010850694444444444,49.07769097222221,0)" xlink:href="#L"/><use transform="matrix(0.010850694444444444,0,0,0.010850694444444444,61.55598958333333,0)" xlink:href="#K"/></g><g id="G"><use transform="matrix(0.010850694444444444,0,0,0.010850694444444444,0,0)" xlink:href="#aj"/><use transform="matrix(0.010850694444444444,0,0,0.010850694444444444,5.381944444444445,0)" xlink:href="#O"/><use transform="matrix(0.010850694444444444,0,0,0.010850694444444444,18.70659722222222,0)" xlink:href="#J"/><use transform="matrix(0.010850694444444444,0,0,0.010850694444444444,30.436197916666664,0)" xlink:href="#Q"/></g><path d="M158 418v-1536h174v179h20c37-59 106-193 324-193 279 0 474 222 474 576 0 356-194 580-473 580-213 0-288-135-325-197h-14v591H158zm492-555c209 0 317-186 317-421 0-232-105-413-317-413-206 0-314 166-314 413 0 249 111 421 314 421" id="al"/><g id="H"><use transform="matrix(0.010850694444444444,0,0,0.010850694444444444,0,0)" xlink:href="#al"/><use transform="matrix(0.010850694444444444,0,0,0.010850694444444444,13.606770833333332,0)" xlink:href="#O"/><use transform="matrix(0.010850694444444444,0,0,0.010850694444444444,26.931423611111104,0)" xlink:href="#T"/><use transform="matrix(0.010850694444444444,0,0,0.010850694444444444,32.31336805555555,0)" xlink:href="#P"/><use transform="matrix(0.010850694444444444,0,0,0.010850694444444444,45.44270833333333,0)" xlink:href="#K"/><use transform="matrix(0.010850694444444444,0,0,0.010850694444444444,52.49565972222222,0)" xlink:href="#J"/></g><path d="M611 442c-248 0-391-105-460-228l146-94c47 65 117 165 314 165 178 0 307-82 307-266v-224h-17C863-141 792-18 576-18c-268 0-472-195-472-546 0-346 197-568 476-568 216 0 288 133 326 193h17v-179h175V29c0 289-215 413-487 413zm-5-620c203 0 314-146 314-390 0-237-108-403-314-403-213 0-319 180-319 403 0 230 109 390 319 390" id="am"/><g id="I"><use transform="matrix(0.010850694444444444,0,0,0.010850694444444444,0,0)" xlink:href="#am"/><use transform="matrix(0.010850694444444444,0,0,0.010850694444444444,13.628472222222221,0)" xlink:href="#L"/><use transform="matrix(0.010850694444444444,0,0,0.010850694444444444,26.106770833333332,0)" xlink:href="#T"/><use transform="matrix(0.010850694444444444,0,0,0.010850694444444444,31.488715277777775,0)" xlink:href="#P"/></g></defs></g></svg>